<svg width="40" height="40" viewBox="0 0 40 40" fill="none" xmlns="http://www.w3.org/2000/svg">
<path d="M19.9999 0.833252C9.41992 0.833252 0.833252 9.41992 0.833252 19.9999C0.833252 30.5799 9.41992 39.1666 19.9999 39.1666C30.5799 39.1666 39.1666 30.5799 39.1666 19.9999C39.1666 9.41992 30.5799 0.833252 19.9999 0.833252ZM28.8933 13.8666C28.6058 16.8949 27.3599 24.2549 26.7274 27.6474C26.4591 29.0849 25.9224 29.5641 25.4241 29.6216C24.3124 29.7174 23.4691 28.8933 22.3958 28.1841C20.7091 27.0724 19.7508 26.3824 18.1216 25.3091C16.2241 24.0633 17.4508 23.3733 18.5433 22.2616C18.8308 21.9741 23.7374 17.5083 23.8333 17.1058C23.8466 17.0448 23.8448 16.9815 23.8281 16.9214C23.8114 16.8613 23.7803 16.8061 23.7374 16.7608C23.6224 16.6649 23.4691 16.7033 23.3349 16.7224C23.1624 16.7608 20.4791 18.5433 15.2466 22.0699C14.4799 22.5874 13.7899 22.8558 13.1766 22.8366C12.4866 22.8174 11.1833 22.4533 10.2058 22.1274C8.99825 21.7441 8.05909 21.5333 8.13575 20.8624C8.17409 20.5174 8.65325 20.1724 9.55409 19.8083C15.1508 17.3741 18.8691 15.7641 20.7283 14.9974C26.0566 12.7741 27.1491 12.3908 27.8774 12.3908C28.0308 12.3908 28.3949 12.4291 28.6249 12.6208C28.8166 12.7741 28.8741 12.9849 28.8933 13.1383C28.8741 13.2533 28.9124 13.5983 28.8933 13.8666Z" fill="#F8F8F8"/>
</svg>
