<svg width="20" height="2" viewBox="0 0 20 2" fill="none" xmlns="http://www.w3.org/2000/svg">
<path d="M13.073 -18H6.938C1.332 -18 0 -16.667 0 -11.073V-4.937C0 0.667 1.323 2 6.927 2H13.063C18.667 2 20 0.677 20 -4.927V-11.062C20 -16.668 18.677 -18 13.073 -18ZM16.146 -3.73H14.687C14.135 -3.73 13.969 -4.177 12.979 -5.167C12.115 -6 11.75 -6.104 11.531 -6.104C11.229 -6.104 11.146 -6.021 11.146 -5.604V-4.292C11.146 -3.937 11.031 -3.729 10.104 -3.729C9.20435 -3.78946 8.33192 -4.06279 7.5586 -4.52647C6.78527 -4.99015 6.13317 -5.63092 5.656 -6.396C4.52317 -7.806 3.73494 -9.46087 3.354 -11.229C3.354 -11.448 3.437 -11.646 3.854 -11.646H5.313C5.688 -11.646 5.823 -11.479 5.969 -11.094C6.677 -9.01 7.885 -7.198 8.375 -7.198C8.563 -7.198 8.645 -7.281 8.645 -7.75V-9.896C8.583 -10.875 8.063 -10.958 8.063 -11.312C8.06968 -11.4054 8.11247 -11.4925 8.18229 -11.5548C8.25211 -11.6172 8.34347 -11.6499 8.437 -11.646H10.729C11.042 -11.646 11.146 -11.49 11.146 -11.115V-8.219C11.146 -7.906 11.281 -7.802 11.375 -7.802C11.563 -7.802 11.708 -7.906 12.052 -8.25C12.7909 -9.15105 13.3945 -10.1549 13.844 -11.23C13.8899 -11.3591 13.9769 -11.4697 14.0915 -11.5448C14.2062 -11.6199 14.3423 -11.6555 14.479 -11.646H15.938C16.375 -11.646 16.468 -11.427 16.375 -11.115C15.8445 -9.92657 15.1881 -8.79845 14.417 -7.75C14.26 -7.51 14.197 -7.385 14.417 -7.104C14.562 -6.885 15.073 -6.458 15.417 -6.052C15.9169 -5.55336 16.332 -4.97643 16.646 -4.344C16.771 -3.938 16.562 -3.73 16.146 -3.73Z" fill="#F8F8F8"/>
</svg>
